<svg width="35" height="35" viewBox="0 0 35 35" fill="none" xmlns="http://www.w3.org/2000/svg">
<mask id="mask0_22949_13241" style="mask-type:alpha" maskUnits="userSpaceOnUse" x="0" y="0" width="35" height="35">
<rect x="0.5" y="0.5" width="34" height="34" fill="#D9D9D9"/>
</mask>
<g mask="url(#mask0_22949_13241)">
<path d="M16.4372 18.5627V23.1668C16.4372 23.4679 16.5391 23.7202 16.7428 23.9237C16.9466 24.1274 17.199 24.2293 17.5 24.2293C17.8013 24.2293 18.0536 24.1274 18.2569 23.9237C18.4604 23.7202 18.5622 23.4679 18.5622 23.1668V18.5627H23.1663C23.4674 18.5627 23.7197 18.4608 23.9232 18.257C24.127 18.0533 24.2288 17.8008 24.2288 17.4998C24.2288 17.1985 24.127 16.9462 23.9232 16.743C23.7197 16.5394 23.4674 16.4377 23.1663 16.4377H18.5622V11.8335C18.5622 11.5325 18.4603 11.2802 18.2565 11.0766C18.0528 10.8729 17.8004 10.771 17.4993 10.771C17.198 10.771 16.9458 10.8729 16.7425 11.0766C16.5389 11.2802 16.4372 11.5325 16.4372 11.8335V16.4377H11.833C11.532 16.4377 11.2797 16.5395 11.0762 16.7433C10.8724 16.9471 10.7705 17.1995 10.7705 17.5005C10.7705 17.8018 10.8724 18.0541 11.0762 18.2574C11.2797 18.4609 11.532 18.5627 11.833 18.5627H16.4372ZM8.01899 29.5418C7.30333 29.5418 6.69759 29.2939 6.20176 28.7981C5.70592 28.3022 5.45801 27.6965 5.45801 26.9809V8.01948C5.45801 7.30382 5.70592 6.69808 6.20176 6.20225C6.69759 5.70641 7.30333 5.4585 8.01899 5.4585H26.9804C27.696 5.4585 28.3018 5.70641 28.7976 6.20225C29.2934 6.69808 29.5413 7.30382 29.5413 8.01948V26.9809C29.5413 27.6965 29.2934 28.3022 28.7976 28.7981C28.3018 29.2939 27.696 29.5418 26.9804 29.5418H8.01899Z" fill="#444748"/>
</g>
</svg>
