<svg width="496" height="360" viewBox="0 0 496 360" fill="none" xmlns="http://www.w3.org/2000/svg">
<path d="M162.5 144.016C184.872 144.016 203.008 125.88 203.008 103.508C203.008 81.136 184.872 63 162.5 63C140.128 63 121.992 81.136 121.992 103.508C121.992 125.88 140.128 144.016 162.5 144.016Z" fill="#FAFAFA"/>
<path d="M167.82 143.637C184.656 141.485 198.201 128.953 201.999 112.75L185.542 96.42L182.884 99.4581L163.769 80.2168L148.072 124.016L167.82 143.637Z" fill="#F3F3F3"/>
<path d="M176.175 107.687C175.668 108.193 175.415 108.953 175.542 109.586L177.694 121.991C177.947 123.763 176.175 125.029 174.529 124.27L163.389 118.447C162.756 118.067 161.997 118.067 161.364 118.447L150.224 124.27C148.705 125.156 146.806 123.763 147.059 121.991L149.211 109.586C149.338 108.953 149.085 108.193 148.578 107.687L139.591 98.9522C138.325 97.6863 139.084 95.5343 140.73 95.2812L153.136 93.5089C153.769 93.3824 154.402 93.0026 154.781 92.3697L160.351 81.1034C161.111 79.4577 163.389 79.4577 164.149 81.1034L169.719 92.3697C170.098 93.0026 170.605 93.5089 171.364 93.5089L183.77 95.2812C185.542 95.5343 186.175 97.6863 184.909 98.9522L176.175 107.687Z" fill="#CFCECE"/>
<path d="M154.843 157.184C154.301 157.184 153.816 157.09 153.387 156.904C152.957 156.717 152.593 156.451 152.295 156.106C151.996 155.76 151.767 155.34 151.609 154.846C151.45 154.342 151.371 153.772 151.371 153.138C151.371 152.522 151.459 151.966 151.637 151.472C151.814 150.968 152.066 150.543 152.393 150.198C152.729 149.843 153.13 149.572 153.597 149.386C154.063 149.19 154.586 149.092 155.165 149.092C155.715 149.092 156.215 149.171 156.663 149.33C157.111 149.479 157.489 149.698 157.797 149.988C158.114 150.277 158.357 150.627 158.525 151.038C158.702 151.448 158.791 151.91 158.791 152.424V157.016H156.719V152.522C156.719 151.952 156.579 151.514 156.299 151.206C156.028 150.888 155.645 150.73 155.151 150.73C154.647 150.73 154.25 150.898 153.961 151.234C153.681 151.56 153.541 152.018 153.541 152.606V153.642C153.541 154.911 154.054 155.546 155.081 155.546C155.174 155.546 155.253 155.546 155.319 155.546C155.393 155.536 155.468 155.522 155.543 155.504L155.781 157.1C155.641 157.137 155.477 157.16 155.291 157.17C155.104 157.179 154.955 157.184 154.843 157.184ZM163.845 151.878C163.845 151.523 163.752 151.243 163.565 151.038C163.388 150.832 163.089 150.73 162.669 150.73C162.268 150.73 161.951 150.818 161.717 150.996C161.484 151.164 161.288 151.36 161.129 151.584L159.897 150.492C160.196 150.053 160.565 149.712 161.003 149.47C161.451 149.218 162.058 149.092 162.823 149.092C163.841 149.092 164.611 149.32 165.133 149.778C165.656 150.235 165.917 150.902 165.917 151.78V157.016H163.845V151.878ZM170.209 157.184C169.78 157.184 169.374 157.132 168.991 157.03C168.608 156.927 168.268 156.768 167.969 156.554L168.739 155.098C168.898 155.2 169.084 155.303 169.299 155.406C169.514 155.499 169.78 155.546 170.097 155.546C170.545 155.546 170.881 155.396 171.105 155.098C171.338 154.79 171.455 154.379 171.455 153.866V152.424C171.455 151.91 171.343 151.5 171.119 151.192C170.895 150.884 170.559 150.73 170.111 150.73C169.71 150.73 169.392 150.837 169.159 151.052C168.926 151.266 168.772 151.528 168.697 151.836L167.017 151.108C167.25 150.473 167.638 149.978 168.179 149.624C168.73 149.269 169.406 149.092 170.209 149.092C170.76 149.092 171.245 149.19 171.665 149.386C172.094 149.572 172.454 149.843 172.743 150.198C173.032 150.543 173.252 150.963 173.401 151.458C173.55 151.952 173.625 152.508 173.625 153.124C173.625 153.74 173.55 154.3 173.401 154.804C173.252 155.308 173.032 155.737 172.743 156.092C172.454 156.437 172.094 156.708 171.665 156.904C171.245 157.09 170.76 157.184 170.209 157.184Z" fill="#E1E1E1"/>
<g clip-path="url(#clip0_31955_23010)">
<path d="M333.501 144.018C355.874 144.018 374.011 125.882 374.011 103.509C374.011 81.1366 355.874 63 333.501 63C311.129 63 292.992 81.1366 292.992 103.509C292.992 125.882 311.129 144.018 333.501 144.018Z" fill="#FAFAFA"/>
<path opacity="0.49" d="M372.842 113.197L344.811 85.1675C342.082 82.5229 338.096 81.0273 333.51 81.0273C325.214 81.0273 318.352 85.8424 318.352 94.917L328.848 105.413C328.16 106.93 327.725 108.826 327.725 111.286V112.443L330.776 115.494H327.482V125.994L344.104 142.614C351.08 140.716 357.423 136.988 362.476 131.816C367.528 126.644 371.107 120.216 372.842 113.197Z" fill="#ECECEC"/>
<path d="M327.725 111.286C327.725 104.382 331.144 101.909 333.983 99.8518C336.016 98.4097 337.719 97.1763 337.719 94.7165C337.719 92.1327 335.778 90.5067 333.475 90.5067C331.146 90.5067 328.969 92.0622 328.969 94.917H318.352C318.352 85.8429 325.214 81.0273 333.51 81.0273C342.142 81.0273 348.65 86.3268 348.65 94.6132C348.65 100.377 345.431 102.866 342.568 105.096C340.293 106.849 338.288 108.394 338.288 111.285V112.442H327.725V111.286ZM327.482 115.494H338.444V125.994H327.482L327.482 115.494Z" fill="#CFCECE"/>
</g>
<path d="M280.658 157.016C279.949 157.016 279.426 156.843 279.09 156.498C278.764 156.152 278.6 155.653 278.6 155V149.26H280.672V155.406H281.638V157.016H280.658ZM282.887 152.382C282.887 151.878 282.976 151.425 283.153 151.024C283.33 150.622 283.582 150.277 283.909 149.988C284.236 149.698 284.632 149.479 285.099 149.33C285.575 149.171 286.107 149.092 286.695 149.092C287.283 149.092 287.81 149.171 288.277 149.33C288.753 149.479 289.154 149.698 289.481 149.988C289.808 150.277 290.06 150.622 290.237 151.024C290.414 151.425 290.503 151.878 290.503 152.382V157.016H288.431V152.48C288.431 151.92 288.277 151.49 287.969 151.192C287.661 150.884 287.236 150.73 286.695 150.73C286.154 150.73 285.729 150.884 285.421 151.192C285.113 151.49 284.959 151.92 284.959 152.48V154.146H285.029C285.066 153.94 285.132 153.744 285.225 153.558C285.318 153.362 285.44 153.189 285.589 153.04C285.748 152.89 285.934 152.774 286.149 152.69C286.364 152.596 286.616 152.55 286.905 152.55H287.269V154.482H286.751C286.144 154.482 285.692 154.561 285.393 154.72C285.104 154.878 284.959 155.172 284.959 155.602V157.016H282.887V152.382ZM295.22 157.184C294.473 157.184 293.838 157.062 293.316 156.82C292.802 156.577 292.35 156.236 291.958 155.798L293.204 154.594C293.474 154.892 293.782 155.135 294.128 155.322C294.482 155.499 294.879 155.588 295.318 155.588C295.747 155.588 296.06 155.518 296.256 155.378C296.452 155.238 296.55 155.056 296.55 154.832C296.55 154.589 296.47 154.416 296.312 154.314C296.153 154.202 295.938 154.127 295.668 154.09L294.87 153.992C294.02 153.889 293.367 153.642 292.91 153.25C292.462 152.858 292.238 152.312 292.238 151.612C292.238 151.22 292.308 150.87 292.448 150.562C292.597 150.254 292.802 149.992 293.064 149.778C293.334 149.554 293.652 149.386 294.016 149.274C294.389 149.152 294.8 149.092 295.248 149.092C295.621 149.092 295.957 149.12 296.256 149.176C296.554 149.222 296.825 149.297 297.068 149.4C297.32 149.502 297.548 149.628 297.754 149.778C297.959 149.927 298.16 150.1 298.356 150.296L297.138 151.5C296.914 151.257 296.638 151.061 296.312 150.912C295.985 150.762 295.644 150.688 295.29 150.688C294.907 150.688 294.627 150.758 294.45 150.898C294.272 151.038 294.184 151.22 294.184 151.444C294.184 151.668 294.254 151.85 294.394 151.99C294.543 152.12 294.795 152.209 295.15 152.256L295.948 152.368C296.349 152.424 296.704 152.508 297.012 152.62C297.329 152.732 297.595 152.881 297.81 153.068C298.034 153.245 298.202 153.464 298.314 153.726C298.435 153.987 298.496 154.3 298.496 154.664C298.496 155.028 298.416 155.364 298.258 155.672C298.099 155.98 297.875 156.246 297.586 156.47C297.306 156.694 296.96 156.871 296.55 157.002C296.148 157.123 295.705 157.184 295.22 157.184ZM291.957 146.558H294.197V145.326H295.751V146.74H296.829V145.326H298.425V148.07H291.957V146.558ZM296.689 142.484H298.425V144.724H296.689V142.484ZM303.182 157.184C302.688 157.184 302.23 157.118 301.81 156.988C301.39 156.848 301.026 156.661 300.718 156.428C300.42 156.185 300.182 155.9 300.004 155.574C299.836 155.247 299.752 154.888 299.752 154.496V153.81C299.752 153.427 299.855 153.124 300.06 152.9C300.275 152.676 300.592 152.564 301.012 152.564H302.692V154.09H301.614V154.314C301.614 154.734 301.754 155.056 302.034 155.28C302.314 155.494 302.72 155.602 303.252 155.602C303.728 155.602 304.092 155.443 304.344 155.126C304.606 154.799 304.736 154.356 304.736 153.796V152.508C304.736 151.948 304.587 151.514 304.288 151.206C303.99 150.888 303.57 150.73 303.028 150.73C302.767 150.73 302.52 150.762 302.286 150.828C302.062 150.893 301.857 150.977 301.67 151.08C301.493 151.182 301.334 151.299 301.194 151.43C301.064 151.551 300.961 151.668 300.886 151.78L299.626 150.66C299.916 150.221 300.35 149.852 300.928 149.554C301.516 149.246 302.244 149.092 303.112 149.092C303.7 149.092 304.228 149.185 304.694 149.372C305.17 149.549 305.572 149.815 305.898 150.17C306.225 150.515 306.472 150.94 306.64 151.444C306.818 151.938 306.906 152.503 306.906 153.138C306.906 153.772 306.822 154.342 306.654 154.846C306.486 155.34 306.239 155.765 305.912 156.12C305.595 156.465 305.203 156.731 304.736 156.918C304.279 157.095 303.761 157.184 303.182 157.184ZM307.63 151.472H309.646L311.326 155.378H311.396C311.723 155.378 311.979 155.238 312.166 154.958C312.353 154.678 312.446 154.286 312.446 153.782V152.494C312.446 151.99 312.348 151.598 312.152 151.318C311.956 151.038 311.685 150.898 311.34 150.898H310.822V149.26H311.382C311.886 149.26 312.334 149.348 312.726 149.526C313.127 149.703 313.463 149.96 313.734 150.296C314.014 150.622 314.229 151.028 314.378 151.514C314.527 151.99 314.602 152.531 314.602 153.138C314.602 153.744 314.527 154.29 314.378 154.776C314.238 155.252 314.028 155.658 313.748 155.994C313.477 156.32 313.141 156.572 312.74 156.75C312.348 156.927 311.905 157.016 311.41 157.016H310.052L307.63 151.472ZM316.125 149.26H318.197V151.416L319.975 151.178C320.246 151.14 320.437 151.052 320.549 150.912C320.671 150.762 320.75 150.52 320.787 150.184L320.885 149.26H323.027L322.929 150.254C322.883 150.683 322.715 151.052 322.425 151.36C322.136 151.658 321.721 151.831 321.179 151.878V151.948C321.534 152.004 321.819 152.125 322.033 152.312C322.248 152.498 322.416 152.718 322.537 152.97C322.668 153.212 322.757 153.469 322.803 153.74C322.859 154.01 322.897 154.253 322.915 154.468L323.153 157.016H321.025L320.815 154.328C320.778 153.842 320.652 153.474 320.437 153.222C320.223 152.96 319.924 152.853 319.541 152.9L318.197 153.068V157.016H316.125V149.26ZM329.216 157.184C328.88 157.184 328.586 157.142 328.334 157.058C328.091 156.974 327.877 156.866 327.69 156.736C327.513 156.596 327.363 156.437 327.242 156.26C327.13 156.082 327.041 155.9 326.976 155.714H326.906V157.016H324.834V149.26H326.906V154.3C326.906 154.496 326.948 154.668 327.032 154.818C327.116 154.967 327.223 155.093 327.354 155.196C327.494 155.298 327.648 155.378 327.816 155.434C327.993 155.48 328.166 155.504 328.334 155.504C328.595 155.504 328.81 155.462 328.978 155.378C329.155 155.294 329.291 155.182 329.384 155.042C329.477 154.892 329.543 154.724 329.58 154.538C329.617 154.351 329.636 154.155 329.636 153.95V149.26H331.708V154.132C331.708 155.112 331.498 155.868 331.078 156.4C330.658 156.922 330.037 157.184 329.216 157.184ZM336.903 151.878C336.903 151.523 336.809 151.243 336.623 151.038C336.445 150.832 336.147 150.73 335.727 150.73C335.325 150.73 335.008 150.818 334.775 150.996C334.541 151.164 334.345 151.36 334.187 151.584L332.955 150.492C333.253 150.053 333.622 149.712 334.061 149.47C334.509 149.218 335.115 149.092 335.881 149.092C336.898 149.092 337.668 149.32 338.191 149.778C338.713 150.235 338.975 150.902 338.975 151.78V157.016H336.903V151.878ZM343.729 157.184C342.711 157.184 341.913 156.988 341.335 156.596C340.756 156.194 340.467 155.63 340.467 154.902C340.467 154.454 340.597 154.071 340.859 153.754C341.129 153.436 341.475 153.212 341.895 153.082V152.998C341.428 152.876 341.064 152.648 340.803 152.312C340.541 151.976 340.411 151.574 340.411 151.108C340.411 150.809 340.467 150.538 340.579 150.296C340.691 150.044 340.845 149.829 341.041 149.652C341.246 149.474 341.489 149.339 341.769 149.246C342.058 149.143 342.371 149.092 342.707 149.092C342.921 149.092 343.164 149.115 343.435 149.162C343.715 149.199 343.962 149.278 344.177 149.4L343.743 150.884C343.631 150.818 343.519 150.776 343.407 150.758C343.304 150.73 343.192 150.716 343.071 150.716C342.856 150.716 342.665 150.781 342.497 150.912C342.338 151.033 342.259 151.215 342.259 151.458C342.259 151.971 342.585 152.228 343.239 152.228H343.967V153.6H343.239C343.033 153.6 342.865 153.67 342.735 153.81C342.604 153.94 342.539 154.118 342.539 154.342V154.608C342.539 154.925 342.646 155.163 342.861 155.322C343.075 155.471 343.388 155.546 343.799 155.546C344.265 155.546 344.634 155.42 344.905 155.168C345.175 154.906 345.311 154.528 345.311 154.034V149.26H347.383V154.3C347.383 154.738 347.294 155.135 347.117 155.49C346.949 155.844 346.706 156.148 346.389 156.4C346.071 156.652 345.689 156.848 345.241 156.988C344.793 157.118 344.289 157.184 343.729 157.184ZM349.141 152.382C349.141 151.878 349.229 151.425 349.407 151.024C349.584 150.622 349.836 150.277 350.163 149.988C350.489 149.698 350.886 149.479 351.353 149.33C351.829 149.171 352.361 149.092 352.949 149.092C353.537 149.092 354.064 149.171 354.531 149.33C355.007 149.479 355.408 149.698 355.735 149.988C356.061 150.277 356.313 150.622 356.491 151.024C356.668 151.425 356.757 151.878 356.757 152.382V157.016H354.685V152.48C354.685 151.92 354.531 151.49 354.223 151.192C353.915 150.884 353.49 150.73 352.949 150.73C352.407 150.73 351.983 150.884 351.675 151.192C351.367 151.49 351.213 151.92 351.213 152.48V154.146H351.283C351.32 153.94 351.385 153.744 351.479 153.558C351.572 153.362 351.693 153.189 351.843 153.04C352.001 152.89 352.188 152.774 352.403 152.69C352.617 152.596 352.869 152.55 353.159 152.55H353.523V154.482H353.005C352.398 154.482 351.945 154.561 351.647 154.72C351.357 154.878 351.213 155.172 351.213 155.602V157.016H349.141V152.382ZM355.727 147.342C355.913 147.342 356.058 147.295 356.161 147.202C356.263 147.108 356.315 146.964 356.315 146.768V146.628C356.315 146.432 356.263 146.287 356.161 146.194C356.058 146.1 355.913 146.054 355.727 146.054C355.54 146.054 355.395 146.1 355.293 146.194C355.19 146.287 355.139 146.432 355.139 146.628V146.768C355.139 146.964 355.19 147.108 355.293 147.202C355.395 147.295 355.54 147.342 355.727 147.342ZM355.727 148.504C355.428 148.504 355.162 148.457 354.929 148.364C354.686 148.27 354.481 148.144 354.313 147.986C354.145 147.818 354.019 147.626 353.935 147.412C353.841 147.188 353.795 146.95 353.795 146.698C353.795 146.446 353.841 146.212 353.935 145.998C354.019 145.774 354.145 145.582 354.313 145.424C354.481 145.256 354.686 145.125 354.929 145.032C355.162 144.938 355.428 144.892 355.727 144.892C356.016 144.892 356.282 144.938 356.525 145.032C356.758 145.125 356.959 145.256 357.127 145.424C357.295 145.582 357.425 145.774 357.519 145.998C357.612 146.212 357.659 146.446 357.659 146.698C357.659 146.95 357.612 147.188 357.519 147.412C357.425 147.626 357.295 147.818 357.127 147.986C356.959 148.144 356.758 148.27 356.525 148.364C356.282 148.457 356.016 148.504 355.727 148.504ZM361.813 151.878C361.813 151.523 361.72 151.243 361.533 151.038C361.356 150.832 361.057 150.73 360.637 150.73C360.236 150.73 359.918 150.818 359.685 150.996C359.452 151.164 359.256 151.36 359.097 151.584L357.865 150.492C358.164 150.053 358.532 149.712 358.971 149.47C359.419 149.218 360.026 149.092 360.791 149.092C361.808 149.092 362.578 149.32 363.101 149.778C363.624 150.235 363.885 150.902 363.885 151.78V157.016H361.813V151.878ZM368.457 157.016C367.747 157.016 367.225 156.843 366.889 156.498C366.562 156.152 366.399 155.653 366.399 155V152.942L365.181 152.452C365.218 151.938 365.339 151.476 365.545 151.066C365.759 150.646 366.039 150.291 366.385 150.002C366.73 149.712 367.136 149.488 367.603 149.33C368.079 149.171 368.597 149.092 369.157 149.092C369.726 149.092 370.235 149.171 370.683 149.33C371.14 149.479 371.527 149.698 371.845 149.988C372.162 150.268 372.405 150.613 372.573 151.024C372.75 151.425 372.839 151.873 372.839 152.368V157.016H370.767V152.634C370.767 152.036 370.613 151.57 370.305 151.234C370.006 150.898 369.563 150.73 368.975 150.73C368.527 150.73 368.139 150.823 367.813 151.01C367.495 151.196 367.262 151.43 367.113 151.71L367.603 151.892C367.939 152.022 368.167 152.172 368.289 152.34C368.41 152.508 368.471 152.76 368.471 153.096V155.406H369.157V157.016H368.457ZM377.891 151.878C377.891 151.523 377.798 151.243 377.611 151.038C377.434 150.832 377.135 150.73 376.715 150.73C376.314 150.73 375.996 150.818 375.763 150.996C375.53 151.164 375.334 151.36 375.175 151.584L373.943 150.492C374.242 150.053 374.61 149.712 375.049 149.47C375.497 149.218 376.104 149.092 376.869 149.092C377.886 149.092 378.656 149.32 379.179 149.778C379.702 150.235 379.963 150.902 379.963 151.78V157.016H377.891V151.878ZM386.187 157.184C385.851 157.184 385.557 157.142 385.305 157.058C385.062 156.974 384.848 156.866 384.661 156.736C384.484 156.596 384.334 156.437 384.213 156.26C384.101 156.082 384.012 155.9 383.947 155.714H383.877V157.016H381.805V149.26H383.877V154.3C383.877 154.496 383.919 154.668 384.003 154.818C384.087 154.967 384.194 155.093 384.325 155.196C384.465 155.298 384.619 155.378 384.787 155.434C384.964 155.48 385.137 155.504 385.305 155.504C385.566 155.504 385.781 155.462 385.949 155.378C386.126 155.294 386.262 155.182 386.355 155.042C386.448 154.892 386.514 154.724 386.551 154.538C386.588 154.351 386.607 154.155 386.607 153.95V149.26H388.679V154.132C388.679 155.112 388.469 155.868 388.049 156.4C387.629 156.922 387.008 157.184 386.187 157.184Z" fill="#E1E1E1"/>
<path d="M162.5 275.016C184.872 275.016 203.008 256.88 203.008 234.508C203.008 212.136 184.872 194 162.5 194C140.128 194 121.992 212.136 121.992 234.508C121.992 256.88 140.128 275.016 162.5 275.016Z" fill="#FAFAFA"/>
<path d="M186.876 215.459L183.386 220.828L173.693 211.135L172.744 214.49L174.363 220.529L137.088 226.57L136.168 250.378L160.766 274.976C161.342 275 161.919 275.016 162.501 275.016C184.873 275.016 203.009 256.88 203.009 234.508C203.009 232.277 202.826 230.09 202.479 227.958L185.656 211.135L186.876 215.459Z" fill="#FAFAFA"/>
<path d="M174.782 249.066C171.609 249.066 169.038 246.494 169.038 243.322C169.038 240.15 171.609 237.578 174.782 237.578C177.954 237.578 180.525 240.15 180.525 243.322C180.525 246.494 177.954 249.066 174.782 249.066Z" fill="#CFCECE"/>
<path d="M187.771 245.061V230.811L189.736 231.928V245.061C190.334 245.81 190.984 246.904 190.984 248.124C190.984 250.383 188.754 252.214 188.754 252.214C188.754 252.214 186.523 250.383 186.523 248.124C186.523 246.904 187.173 245.81 187.771 245.061Z" fill="#ECECEC"/>
<path d="M179.497 221.285C186.51 221.397 191.427 228.3 189.198 234.985L185.981 244.631L183.693 253.649L180.772 255.831L179.199 251.984V244.511H167.611L159.083 232.04L179.497 221.285Z" fill="#ECECEC"/>
<path d="M167.609 244.513H160.173L158.512 253.644L155.983 255.833L153.77 252.025L151.407 242.097C146.812 239.449 143.98 234.549 143.98 229.245L149.489 222.785H157.143L167.609 238.387L167.609 244.513Z" fill="#ECECEC"/>
<path d="M167.609 238.387C167.604 238.387 167.599 238.387 167.594 238.387C163.952 238.387 160.998 235.447 160.973 231.811C157.347 231.775 154.418 228.826 154.418 225.191L157.143 221.285H167.609L167.609 238.387Z" fill="#CFCECE"/>
<path d="M167.611 221.285H179.323C179.382 221.285 179.44 221.287 179.498 221.288C180.298 222.383 180.771 223.731 180.771 225.191C180.771 228.826 177.843 231.775 174.216 231.811C174.191 235.442 171.245 238.378 167.611 238.387L167.611 221.285Z" fill="#CFCECE"/>
<path d="M182.85 256.567L183.691 253.652L179.197 251.986V256.567H182.85Z" fill="#CFCECE"/>
<path d="M158.201 256.565L158.512 253.644L153.77 252.023L154.467 256.565H158.201Z" fill="#CFCECE"/>
<path d="M146.213 222.382C149.243 220.88 151.326 217.758 151.326 214.148C151.326 213.755 151.299 213.368 151.251 212.988C152.252 214.46 152.838 216.236 152.838 218.15C152.838 219.677 152.463 221.115 151.804 222.382H146.213V222.382Z" fill="#CFCECE"/>
<path d="M144.326 222.382C141.296 220.88 139.213 217.758 139.213 214.148C139.213 213.755 139.24 213.368 139.288 212.988C138.287 214.46 137.701 216.236 137.701 218.15C137.701 219.677 138.076 221.115 138.735 222.382H144.326V222.382Z" fill="#CFCECE"/>
<path d="M141.196 221.291L145.265 225.512L149.333 221.291H157.143V222.784C157.143 224.234 155.967 225.409 154.518 225.409H152.493L149.519 234.985L145.264 233.543L141.01 234.985L138.036 225.409H136.011C134.562 225.409 133.386 224.234 133.386 222.784V221.291H141.196Z" fill="#ECECEC"/>
<path d="M149.336 221.291C149.458 221.686 149.523 222.106 149.523 222.541C149.523 224.891 147.618 226.796 145.268 226.796C142.918 226.796 141.013 224.891 141.013 222.541C141.013 222.106 141.079 221.686 141.2 221.291H145.268H149.336Z" fill="#CFCECE"/>
<path d="M141.009 234.985C141.813 233.457 143.416 232.414 145.263 232.414C147.11 232.414 148.713 233.457 149.518 234.985L149.193 236.03C148.658 237.751 147.066 238.924 145.263 238.924C143.461 238.924 141.868 237.751 141.333 236.03L141.009 234.985Z" fill="#CFCECE"/>
<path d="M158.52 288.184C158.09 288.184 157.684 288.132 157.302 288.03C156.919 287.927 156.578 287.768 156.28 287.554L157.05 286.098C157.208 286.2 157.395 286.303 157.61 286.406C157.824 286.499 158.09 286.546 158.408 286.546C158.856 286.546 159.192 286.396 159.416 286.098C159.649 285.79 159.766 285.379 159.766 284.866V283.424C159.766 282.91 159.654 282.5 159.43 282.192C159.206 281.884 158.87 281.73 158.422 281.73C158.02 281.73 157.703 281.837 157.47 282.052C157.236 282.266 157.082 282.528 157.008 282.836L155.328 282.108C155.561 281.473 155.948 280.978 156.49 280.624C157.04 280.269 157.717 280.092 158.52 280.092C159.07 280.092 159.556 280.19 159.976 280.386C160.405 280.572 160.764 280.843 161.054 281.198C161.343 281.543 161.562 281.963 161.712 282.458C161.861 282.952 161.936 283.508 161.936 284.124C161.936 284.74 161.861 285.3 161.712 285.804C161.562 286.308 161.343 286.737 161.054 287.092C160.764 287.437 160.405 287.708 159.976 287.904C159.556 288.09 159.07 288.184 158.52 288.184ZM159.72 279.07C159.142 279.07 158.703 278.934 158.404 278.664C158.096 278.393 157.942 277.996 157.942 277.474V276.326H159.58V277.558H163.332V279.07H159.72ZM165.916 288.184C165.487 288.184 165.081 288.132 164.698 288.03C164.315 287.927 163.975 287.768 163.676 287.554L164.446 286.098C164.605 286.2 164.791 286.303 165.006 286.406C165.221 286.499 165.487 286.546 165.804 286.546C166.252 286.546 166.588 286.396 166.812 286.098C167.045 285.79 167.162 285.379 167.162 284.866V283.424C167.162 282.91 167.05 282.5 166.826 282.192C166.602 281.884 166.266 281.73 165.818 281.73C165.417 281.73 165.099 281.837 164.866 282.052C164.633 282.266 164.479 282.528 164.404 282.836L162.724 282.108C162.957 281.473 163.345 280.978 163.886 280.624C164.437 280.269 165.113 280.092 165.916 280.092C166.467 280.092 166.952 280.19 167.372 280.386C167.801 280.572 168.161 280.843 168.45 281.198C168.739 281.543 168.959 281.963 169.108 282.458C169.257 282.952 169.332 283.508 169.332 284.124C169.332 284.74 169.257 285.3 169.108 285.804C168.959 286.308 168.739 286.737 168.45 287.092C168.161 287.437 167.801 287.708 167.372 287.904C166.952 288.09 166.467 288.184 165.916 288.184Z" fill="#E1E1E1"/>
<path d="M333.499 274.788C355.193 274.788 372.78 257.201 372.78 235.507C372.78 213.813 355.193 196.227 333.499 196.227C311.805 196.227 294.219 213.813 294.219 235.507C294.219 257.201 311.805 274.788 333.499 274.788Z" fill="#FAFAFA"/>
<path d="M372.176 242.153C367.815 237.757 356.537 226.498 356.397 226.409C355.634 225.251 354.399 225.695 354.281 227.033C354.192 228.074 353.201 228.793 351.833 229.299C351.575 229.218 351.271 229.164 350.996 229.098L350.822 229.022L337.304 215.372L327.737 222.614C327.619 222.476 320.681 215.521 320.47 215.403C319.697 214.971 318.943 215.978 318.305 217.49C318.197 217.38 316.834 216.037 316.493 215.917C315.359 215.524 314.755 217.687 314.482 220.149C302.369 225.609 305.374 224.747 306.216 227.183C306.462 227.892 306.84 228.368 307.267 228.751C307.412 228.948 319.721 241.225 319.888 241.373C319.91 241.402 319.933 241.434 319.955 241.464C320.053 242.092 321.511 253.356 321.511 253.356C321.627 254.306 322.044 254.9 322.572 255.263C322.697 255.425 337.078 269.822 341.299 274.012C357.112 270.823 369.448 258.131 372.176 242.153Z" fill="#FAFAFA"/>
<path d="M326.822 224.792C326.137 223.91 325.376 223.007 324.519 222.26C324.154 220.031 323.518 217.601 322.423 216.994C321.608 216.538 320.817 217.672 320.154 219.314C319.629 218.408 319.047 217.714 318.448 217.505C317.314 217.112 316.71 219.275 316.437 221.737C304.324 227.197 307.329 226.336 308.171 228.771C309.423 232.378 313.504 231.096 315.463 231.577C316.118 231.734 316.639 231.933 317.103 232.152L326.822 224.792Z" fill="#CFCECE"/>
<path d="M359.258 241.727C359.258 238.653 358.927 236.414 358.227 234.765C358.855 233.144 359.062 231.347 358.914 229.845C358.603 226.621 356.393 226.813 356.234 228.622C356.145 229.663 355.153 230.382 353.786 230.888C349.269 229.462 341.727 230.164 330.299 228.588C330.038 228.551 329.763 228.384 329.474 228.124L319.963 235.322C320.002 235.413 320.041 235.504 320.078 235.59C320.704 236.999 321.905 241.943 322.128 244.811C322.207 245.783 323.466 254.943 323.466 254.943C323.861 258.218 327.694 257.624 328.121 255.912C328.691 253.624 331.099 247.028 331.099 247.028C341.322 248.898 347.987 246.193 347.987 246.193C347.987 246.193 353.889 253.921 355.961 256.34C357.444 258.065 360.007 257.351 360.007 255.092C360.007 255.092 359.258 244.474 359.258 241.727Z" fill="#CFCECE"/>
<path d="M317.076 233.307L327.917 225.105L329.582 227.306L318.742 235.508L317.076 233.307Z" fill="#ECECEC"/>
<path d="M323.75 289.156C323.004 289.156 322.406 288.974 321.958 288.61C321.52 288.236 321.3 287.658 321.3 286.874C321.3 286.146 321.51 285.581 321.93 285.18C322.35 284.778 322.957 284.578 323.75 284.578H326.06V284.172C326.06 283.705 325.934 283.35 325.682 283.108C325.44 282.856 325.038 282.73 324.478 282.73C324.208 282.73 323.97 282.762 323.764 282.828C323.559 282.893 323.372 282.982 323.204 283.094C323.036 283.196 322.887 283.318 322.756 283.458C322.626 283.588 322.509 283.728 322.406 283.878L321.09 282.73C321.445 282.226 321.893 281.829 322.434 281.54C322.976 281.241 323.704 281.092 324.618 281.092C325.589 281.092 326.368 281.278 326.956 281.652C327.031 281.381 327.166 281.18 327.362 281.05C327.568 280.919 327.824 280.854 328.132 280.854H329.672V282.562H327.824V282.618C328.03 283.019 328.132 283.514 328.132 284.102V289.016H326.06V285.894H324.492C323.764 285.894 323.4 286.192 323.4 286.79V287.028C323.4 287.317 323.475 287.55 323.624 287.728C323.774 287.896 323.993 287.98 324.282 287.98C324.338 287.98 324.394 287.98 324.45 287.98C324.506 287.98 324.562 287.97 324.618 287.952L324.758 289.058C324.712 289.076 324.646 289.09 324.562 289.1C324.488 289.118 324.399 289.128 324.296 289.128C324.203 289.137 324.105 289.142 324.002 289.142C323.909 289.151 323.825 289.156 323.75 289.156ZM326.44 291.802H325.446V290.472H326.832C327.298 290.472 327.634 290.57 327.84 290.766C328.036 290.962 328.134 291.228 328.134 291.564V293.916H326.44V291.802ZM332.901 289.184C332.099 289.184 331.487 288.922 331.067 288.4C330.657 287.868 330.451 287.112 330.451 286.132V281.26H332.523V285.95C332.523 286.174 332.542 286.384 332.579 286.58C332.617 286.766 332.682 286.93 332.775 287.07C332.869 287.2 332.995 287.308 333.153 287.392C333.321 287.466 333.527 287.504 333.769 287.504C333.937 287.504 334.105 287.48 334.273 287.434C334.451 287.378 334.605 287.298 334.735 287.196C334.866 287.093 334.973 286.967 335.057 286.818C335.141 286.668 335.183 286.496 335.183 286.3V281.26H337.255V287.406H337.941V289.016H336.695C335.855 289.016 335.421 288.535 335.393 287.574H335.295C335.221 287.788 335.118 287.994 334.987 288.19C334.866 288.376 334.707 288.544 334.511 288.694C334.325 288.843 334.096 288.96 333.825 289.044C333.564 289.137 333.256 289.184 332.901 289.184ZM335.321 280.07C334.742 280.07 334.304 279.934 334.005 279.664C333.697 279.393 333.543 278.996 333.543 278.474V277.326H335.181V278.558H338.933V280.07H335.321ZM342.377 289.184C341.883 289.184 341.43 289.128 341.019 289.016C340.609 288.904 340.259 288.731 339.969 288.498C339.68 288.264 339.456 287.975 339.297 287.63C339.139 287.284 339.059 286.874 339.059 286.398C339.059 286.136 339.078 285.908 339.115 285.712C339.153 285.516 339.199 285.338 339.255 285.18C339.321 285.021 339.391 284.881 339.465 284.76C339.54 284.638 339.61 284.526 339.675 284.424C339.806 284.218 339.918 283.999 340.011 283.766C340.114 283.523 340.165 283.285 340.165 283.052V282.954H338.975V281.26H340.529C341.061 281.26 341.467 281.381 341.747 281.624C342.027 281.857 342.167 282.174 342.167 282.576V282.632C342.167 282.902 342.13 283.178 342.055 283.458C341.981 283.738 341.855 284.055 341.677 284.41C341.547 284.671 341.435 284.914 341.341 285.138C341.257 285.352 341.215 285.632 341.215 285.978V286.356C341.215 286.71 341.313 286.99 341.509 287.196C341.705 287.392 341.981 287.49 342.335 287.49C342.69 287.49 342.965 287.396 343.161 287.21C343.367 287.014 343.469 286.738 343.469 286.384V281.26H345.499V286.076C345.499 287.046 345.224 287.807 344.673 288.358C344.132 288.908 343.367 289.184 342.377 289.184Z" fill="#E1E1E1"/>
<defs>
<clipPath id="clip0_31955_23010">
<rect width="81.016" height="81.016" fill="white" transform="translate(292.992 63)"/>
</clipPath>
</defs>
</svg>
