<svg width="101" height="101" viewBox="0 0 101 101" fill="none" xmlns="http://www.w3.org/2000/svg">
<path d="M83.833 85.9168H17.1663C12.583 85.9168 8.83301 82.1668 8.83301 77.5835V23.4168C8.83301 18.8335 12.583 15.0835 17.1663 15.0835H83.833C88.4163 15.0835 92.1663 18.8335 92.1663 23.4168V77.5835C92.1663 82.1668 88.4163 85.9168 83.833 85.9168Z" fill="#F57C00"/>
<path d="M73.417 40.0835C76.8688 40.0835 79.667 37.2853 79.667 33.8335C79.667 30.3817 76.8688 27.5835 73.417 27.5835C69.9652 27.5835 67.167 30.3817 67.167 33.8335C67.167 37.2853 69.9652 40.0835 73.417 40.0835Z" fill="#FFF9C4"/>
<path d="M42.1667 33.8335L19.25 67.1668H65.0833L42.1667 33.8335Z" fill="#942A09"/>
<path d="M65.0837 46.3335L48.417 67.1668H81.7503L65.0837 46.3335Z" fill="#BF360C"/>
</svg>
