<svg width="21" height="20" viewBox="0 0 21 20" fill="none" xmlns="http://www.w3.org/2000/svg">
<g opacity="0.38">
<mask id="mask0_121909_8103" style="mask-type:alpha" maskUnits="userSpaceOnUse" x="0" y="0" width="21" height="21">
<rect x="0.5" y="0.00195312" width="20" height="20" fill="#D9D9D9"/>
</mask>
<g mask="url(#mask0_121909_8103)">
<path d="M6.64397 10.6267L10.9517 14.9344C11.0756 15.0583 11.1367 15.2033 11.1352 15.3694C11.1335 15.5355 11.0681 15.6832 10.939 15.8125C10.8097 15.9332 10.6633 15.9957 10.4998 16C10.3363 16.0043 10.1899 15.9418 10.0606 15.8125L4.77709 10.529C4.69903 10.4509 4.64403 10.3686 4.61209 10.2821C4.58001 10.1956 4.56396 10.1021 4.56396 10.0017C4.56396 9.90126 4.58001 9.80778 4.61209 9.72126C4.64403 9.63473 4.69903 9.55244 4.77709 9.47438L10.0606 4.19084C10.176 4.07542 10.319 4.0164 10.4894 4.01376C10.6598 4.01112 10.8097 4.07015 10.939 4.19084C11.0681 4.32015 11.1327 4.46862 11.1327 4.63626C11.1327 4.80403 11.0681 4.95258 10.939 5.08188L6.64397 9.37667H16.1248C16.3022 9.37667 16.4506 9.43653 16.5702 9.55626C16.6899 9.67584 16.7498 9.82431 16.7498 10.0017C16.7498 10.179 16.6899 10.3275 16.5702 10.4471C16.4506 10.5668 16.3022 10.6267 16.1248 10.6267H6.64397Z" fill="#0B0A0A"/>
</g>
</g>
</svg>
