<svg width="19" height="18" viewBox="0 0 19 18" fill="none" xmlns="http://www.w3.org/2000/svg">
<mask id="mask0_121909_8128" style="mask-type:alpha" maskUnits="userSpaceOnUse" x="0" y="0" width="19" height="19">
<rect x="0.5" y="0.00195312" width="18" height="18" fill="#D9D9D9"/>
</mask>
<g mask="url(#mask0_121909_8128)">
<path d="M12.9703 9.5647H4.4375C4.27788 9.5647 4.14425 9.51083 4.03662 9.40308C3.92887 9.29545 3.875 9.16183 3.875 9.0022C3.875 8.84258 3.92887 8.70895 4.03662 8.60133C4.14425 8.49358 4.27788 8.4397 4.4375 8.4397H12.9703L9.09331 4.56276C8.98181 4.45126 8.92675 4.32076 8.92813 4.17126C8.92963 4.02176 8.9885 3.88883 9.10475 3.77245C9.22113 3.66383 9.35287 3.60758 9.5 3.6037C9.64713 3.59983 9.77887 3.65608 9.89525 3.77245L14.6504 8.52764C14.7207 8.59789 14.7702 8.67195 14.7989 8.74983C14.8278 8.8277 14.8422 8.91183 14.8422 9.0022C14.8422 9.09258 14.8278 9.1767 14.7989 9.25458C14.7702 9.33245 14.7207 9.40651 14.6504 9.47676L9.89525 14.232C9.79137 14.3358 9.66275 14.389 9.50938 14.3913C9.356 14.3937 9.22113 14.3406 9.10475 14.232C8.9885 14.1156 8.93038 13.982 8.93038 13.8311C8.93038 13.6801 8.9885 13.5464 9.10475 13.43L12.9703 9.5647Z" fill="#0B0A0A"/>
</g>
</svg>
