<svg width="21" height="20" viewBox="0 0 21 20" fill="none" xmlns="http://www.w3.org/2000/svg">
<path d="M6.80687 2.67746H6.6283C6.72651 2.67746 6.80687 2.5971 6.80687 2.49888V2.67746H13.5926V2.49888C13.5926 2.5971 13.6729 2.67746 13.7712 2.67746H13.5926V4.2846H15.1997V2.49888C15.1997 1.71094 14.5591 1.07031 13.7712 1.07031H6.6283C5.84035 1.07031 5.19973 1.71094 5.19973 2.49888V4.2846H6.80687V2.67746ZM18.0569 4.2846H2.34258C1.94749 4.2846 1.6283 4.60379 1.6283 4.99888V5.71317C1.6283 5.81138 1.70865 5.89174 1.80687 5.89174H3.15508L3.70642 17.5658C3.74214 18.327 4.3716 18.9275 5.13276 18.9275H15.2667C16.0301 18.9275 16.6573 18.3292 16.693 17.5658L17.2444 5.89174H18.5926C18.6908 5.89174 18.7712 5.81138 18.7712 5.71317V4.99888C18.7712 4.60379 18.452 4.2846 18.0569 4.2846ZM15.0948 17.3203H5.30464L4.76446 5.89174H15.635L15.0948 17.3203Z" fill="#BA1A1A"/>
</svg>
