<svg width="21" height="20" viewBox="0 0 21 20" fill="none" xmlns="http://www.w3.org/2000/svg">
<path d="M4.52347 15.356C4.56812 15.356 4.61276 15.3516 4.6574 15.3449L8.41187 14.6864C8.45651 14.6775 8.49892 14.6574 8.53017 14.6239L17.9922 5.16183C18.0129 5.14118 18.0293 5.11665 18.0405 5.08965C18.0517 5.06265 18.0575 5.0337 18.0575 5.00446C18.0575 4.97523 18.0517 4.94628 18.0405 4.91928C18.0293 4.89228 18.0129 4.86775 17.9922 4.8471L14.2824 1.13504C14.24 1.09263 14.1842 1.07031 14.1239 1.07031C14.0637 1.07031 14.0078 1.09263 13.9654 1.13504L4.50338 10.5971C4.4699 10.6306 4.44981 10.6708 4.44088 10.7154L3.7824 14.4699C3.76069 14.5894 3.76845 14.7125 3.80501 14.8284C3.84157 14.9443 3.90583 15.0496 3.99222 15.135C4.13954 15.2779 4.32481 15.356 4.52347 15.356ZM6.02794 11.4632L14.1239 3.36942L15.7601 5.00558L7.6641 13.0993L5.67972 13.4498L6.02794 11.4632ZM18.4141 17.231H1.98553C1.59044 17.231 1.27124 17.5502 1.27124 17.9453V18.7489C1.27124 18.8471 1.3516 18.9275 1.44981 18.9275H18.9498C19.048 18.9275 19.1284 18.8471 19.1284 18.7489V17.9453C19.1284 17.5502 18.8092 17.231 18.4141 17.231Z" fill="#FBBF14"/>
</svg>
