<svg width="25" height="25" viewBox="0 0 25 25" fill="none" xmlns="http://www.w3.org/2000/svg">
<mask id="mask0_120961_20998" style="mask-type:alpha" maskUnits="userSpaceOnUse" x="0" y="0" width="25" height="25">
<rect x="0.480957" y="0.4375" width="24" height="24" fill="#D9D9D9"/>
</mask>
<g mask="url(#mask0_120961_20998)">
<path d="M22.981 5.74525V19.1298C22.981 19.6269 22.804 20.0525 22.45 20.4065C22.096 20.7605 21.6704 20.9375 21.1732 20.9375H17.731C17.5185 20.9375 17.3403 20.8656 17.1965 20.7218C17.0528 20.5779 16.981 20.3997 16.981 20.1873C16.981 19.9746 17.0528 19.7965 17.1965 19.653C17.3403 19.5093 17.5185 19.4375 17.731 19.4375H21.1732C21.263 19.4375 21.3368 19.4087 21.3945 19.351C21.4521 19.2933 21.481 19.2196 21.481 19.1298V5.74525C21.481 5.65542 21.4521 5.58167 21.3945 5.524C21.3368 5.46633 21.263 5.4375 21.1732 5.4375H12.481C12.3911 5.4375 12.3174 5.46633 12.2597 5.524C12.202 5.58167 12.1732 5.65542 12.1732 5.74525V6.58175C12.1732 6.79425 12.1013 6.97242 11.9575 7.11625C11.8136 7.25992 11.6355 7.33175 11.423 7.33175C11.2103 7.33175 11.0322 7.25992 10.8887 7.11625C10.745 6.97242 10.6732 6.79425 10.6732 6.58175V5.7145C10.6732 5.2285 10.8479 4.81083 11.1972 4.4615C11.5465 4.11217 11.9642 3.9375 12.4502 3.9375H21.1732C21.6704 3.9375 22.096 4.1145 22.45 4.4685C22.804 4.8225 22.981 5.24808 22.981 5.74525ZM1.98096 12.6163C1.98096 12.3214 2.04796 12.0436 2.18196 11.7828C2.31596 11.5217 2.50346 11.3092 2.74446 11.1452L7.43671 7.801C7.60304 7.68133 7.77312 7.59533 7.94696 7.543C8.12079 7.49067 8.29846 7.4645 8.47996 7.4645C8.66146 7.4645 8.83937 7.49067 9.01371 7.543C9.18787 7.59533 9.35837 7.68133 9.52521 7.801L14.2175 11.1452C14.4585 11.3092 14.646 11.5217 14.78 11.7828C14.914 12.0436 14.981 12.3214 14.981 12.6163V19.1298C14.981 19.6269 14.804 20.0525 14.45 20.4065C14.096 20.7605 13.6704 20.9375 13.1732 20.9375H11.4232C10.9262 20.9375 10.5007 20.7605 10.1467 20.4065C9.79271 20.0525 9.61571 19.6269 9.61571 19.1298V16.1875H7.34621V19.1298C7.34621 19.6269 7.16921 20.0525 6.81521 20.4065C6.46121 20.7605 6.03571 20.9375 5.53871 20.9375H3.78871C3.29154 20.9375 2.86596 20.7605 2.51196 20.4065C2.15796 20.0525 1.98096 19.6269 1.98096 19.1298V12.6163ZM3.48096 12.601V19.1298C3.48096 19.2196 3.50979 19.2933 3.56746 19.351C3.62512 19.4087 3.69887 19.4375 3.78871 19.4375H5.53871C5.62837 19.4375 5.70204 19.4087 5.75971 19.351C5.81754 19.2933 5.84646 19.2196 5.84646 19.1298V16.2067C5.84646 15.7849 5.99421 15.4263 6.28971 15.1308C6.58521 14.8353 6.94379 14.6875 7.36546 14.6875H9.59646C10.0181 14.6875 10.3767 14.8353 10.6722 15.1308C10.9677 15.4263 11.1155 15.7849 11.1155 16.2067V19.1298C11.1155 19.2196 11.1444 19.2933 11.2022 19.351C11.2599 19.4087 11.3335 19.4375 11.4232 19.4375H13.1732C13.263 19.4375 13.3368 19.4087 13.3945 19.351C13.4521 19.2933 13.481 19.2196 13.481 19.1298V12.601C13.481 12.5497 13.4697 12.5016 13.4472 12.4567C13.4249 12.4119 13.3912 12.3734 13.3462 12.3413L8.65396 9.03175C8.60279 8.99325 8.54512 8.974 8.48096 8.974C8.41679 8.974 8.35912 8.99325 8.30796 9.03175L3.61571 12.3413C3.57071 12.3734 3.53704 12.4119 3.51471 12.4567C3.49221 12.5016 3.48096 12.5497 3.48096 12.601ZM18.0482 9.322H18.9137C19.0342 9.322 19.1396 9.27683 19.23 9.1865C19.3203 9.09617 19.3655 8.99075 19.3655 8.87025V8.00475C19.3655 7.88425 19.3203 7.77883 19.23 7.6885C19.1396 7.59817 19.0342 7.553 18.9137 7.553H18.0482C17.9277 7.553 17.8223 7.59817 17.732 7.6885C17.6416 7.77883 17.5965 7.88425 17.5965 8.00475V8.87025C17.5965 8.99075 17.6416 9.09617 17.732 9.1865C17.8223 9.27683 17.9277 9.322 18.0482 9.322ZM18.0482 13.322H18.9137C19.0342 13.322 19.1396 13.2768 19.23 13.1865C19.3203 13.0962 19.3655 12.9907 19.3655 12.8702V12.0048C19.3655 11.8843 19.3203 11.7788 19.23 11.6885C19.1396 11.5982 19.0342 11.553 18.9137 11.553H18.0482C17.9277 11.553 17.8223 11.5982 17.732 11.6885C17.6416 11.7788 17.5965 11.8843 17.5965 12.0048V12.8702C17.5965 12.9907 17.6416 13.0962 17.732 13.1865C17.8223 13.2768 17.9277 13.322 18.0482 13.322ZM18.0482 17.322H18.9137C19.0342 17.322 19.1396 17.2768 19.23 17.1865C19.3203 17.0962 19.3655 16.9907 19.3655 16.8702V16.0048C19.3655 15.8843 19.3203 15.7788 19.23 15.6885C19.1396 15.5982 19.0342 15.553 18.9137 15.553H18.0482C17.9277 15.553 17.8223 15.5982 17.732 15.6885C17.6416 15.7788 17.5965 15.8843 17.5965 16.0048V16.8702C17.5965 16.9907 17.6416 17.0962 17.732 17.1865C17.8223 17.2768 17.9277 17.322 18.0482 17.322Z" fill="#5DC0EA"/>
</g>
</svg>
