<svg width="24" height="24" viewBox="0 0 24 24" fill="none" xmlns="http://www.w3.org/2000/svg">
<mask id="mask0_62552_603" style="mask-type:alpha" maskUnits="userSpaceOnUse" x="0" y="0" width="24" height="24">
<rect width="24" height="24" fill="#D9D9D9"/>
</mask>
<g mask="url(#mask0_62552_603)">
<path d="M10.0344 15.525L7.18069 12.6328C7.00636 12.4519 6.91919 12.241 6.91919 12C6.91919 11.759 7.00636 11.5481 7.18069 11.3672L10.0344 8.475C10.1819 8.32117 10.3477 8.28258 10.5317 8.35925C10.7157 8.43592 10.8077 8.58158 10.8077 8.79625V15.2135C10.8077 15.4243 10.7157 15.5674 10.5317 15.6427C10.3477 15.7181 10.1819 15.6788 10.0344 15.525ZM12.9999 19.75V4.25C12.9999 4.0375 13.0719 3.85942 13.2157 3.71575C13.3595 3.57192 13.5377 3.5 13.7502 3.5C13.9629 3.5 14.1409 3.57192 14.2844 3.71575C14.4281 3.85942 14.4999 4.0375 14.4999 4.25V19.75C14.4999 19.9625 14.428 20.1406 14.2842 20.2843C14.1404 20.4281 13.9622 20.5 13.7497 20.5C13.537 20.5 13.3589 20.4281 13.2154 20.2843C13.0718 20.1406 12.9999 19.9625 12.9999 19.75Z" fill="#0B0A0A"/>
</g>
</svg>
