<svg width="24" height="24" viewBox="0 0 24 24" fill="none" xmlns="http://www.w3.org/2000/svg">
<mask id="mask0_62552_948" style="mask-type:alpha" maskUnits="userSpaceOnUse" x="0" y="0" width="24" height="24">
<rect width="24" height="24" fill="#D9D9D9"/>
</mask>
<g mask="url(#mask0_62552_948)">
<path d="M9.5 19.75V4.25C9.5 4.0375 9.57192 3.85942 9.71575 3.71575C9.85958 3.57192 10.0378 3.5 10.2503 3.5C10.4629 3.5 10.641 3.57192 10.7845 3.71575C10.9282 3.85942 11 4.0375 11 4.25V19.75C11 19.9625 10.9281 20.1406 10.7842 20.2843C10.6404 20.4281 10.4622 20.5 10.2497 20.5C10.0371 20.5 9.859 20.4281 9.7155 20.2843C9.57183 20.1406 9.5 19.9625 9.5 19.75ZM13.1923 15.2135V8.79625C13.1923 8.58158 13.2842 8.43592 13.4682 8.35925C13.6522 8.28258 13.818 8.32117 13.9655 8.475L16.8193 11.3672C16.9936 11.5481 17.0807 11.759 17.0807 12C17.0807 12.241 16.9936 12.4519 16.8193 12.6328L13.9655 15.525C13.818 15.6788 13.6522 15.7181 13.4682 15.6427C13.2842 15.5674 13.1923 15.4243 13.1923 15.2135Z" fill="#0B0A0A"/>
</g>
</svg>
